<?xml version="1.0" encoding="UTF-8"?>
<svg xmlns="http://www.w3.org/2000/svg" xmlns:xlink="http://www.w3.org/1999/xlink" width="1440pt" height="809.999993pt" viewBox="0 0 1440 809.999993" version="1.2">
<defs>
<filter id="alpha" filterUnits="objectBoundingBox" x="0%" y="0%" width="100%" height="100%">
  <feColorMatrix type="matrix" in="SourceGraphic" values="0 0 0 0 1 0 0 0 0 1 0 0 0 0 1 0 0 0 1 0"/>
</filter>
<mask id="mask0">
  <g filter="url(#alpha)">
<rect x="0" y="0" width="1440" height="809.999993" style="fill:rgb(0%,0%,0%);fill-opacity:0.4;stroke:none;"/>
  </g>
</mask>
<clipPath id="clip2">
  <path d="M 1 0.519531 L 52.28125 0.519531 L 52.28125 67 L 1 67 Z M 1 0.519531 "/>
</clipPath>
<clipPath id="clip1">
  <rect x="0" y="0" width="53" height="70"/>
</clipPath>
<g id="surface5" clip-path="url(#clip1)">
<g clip-path="url(#clip2)" clip-rule="nonzero">
<path style=" stroke:none;fill-rule:nonzero;fill:rgb(100%,34.118652%,34.118652%);fill-opacity:1;" d="M 3.71875 58.648438 C 10.257812 70.863281 28.890625 68.8125 40.074219 55.058594 C 52.933594 39.246094 57.261719 9.988281 43.933594 2.824219 C 19.011719 -10.570312 -5.832031 44.050781 3.71875 58.648438 Z M 3.71875 58.648438 "/>
</g>
</g>
</defs>
<g id="surface1">
<path style=" stroke:none;fill-rule:nonzero;fill:rgb(11.369324%,5.488586%,2.749634%);fill-opacity:1;" d="M 175.878906 579.097656 C 166.757812 607.941406 159.105469 637.296875 152.390625 666.789062 C 150.953125 673.097656 134.304688 738.046875 151.988281 735.417969 C 159.953125 734.230469 165.5625 721.015625 168.800781 715.0625 C 177.871094 698.394531 185.132812 680.695312 192.332031 663.164062 C 203.539062 635.878906 213.945312 608.222656 223.703125 580.390625 C 224.964844 576.78125 219.253906 575.246094 218 578.820312 C 210.421875 600.4375 202.367188 621.902344 194.007812 643.230469 C 187.386719 660.132812 180.480469 676.925781 172.929688 693.429688 C 167.664062 704.929688 162.292969 718.007812 153.753906 727.546875 C 147.757812 734.246094 150.4375 711.25 150.808594 707.945312 C 152.839844 689.898438 157.011719 671.992188 161.003906 654.300781 C 166.617188 629.445312 173.058594 604.75 179.570312 580.113281 C 180.210938 577.714844 176.621094 576.753906 175.878906 579.097656 Z M 175.878906 579.097656 "/>
<path style=" stroke:none;fill-rule:nonzero;fill:rgb(11.369324%,5.488586%,2.749634%);fill-opacity:1;" d="M 547.644531 580.117188 C 553.914062 603.828125 560.046875 627.601562 565.570312 651.496094 C 569.4375 668.226562 573.046875 685.070312 575.621094 702.050781 C 576.644531 708.820312 577.390625 715.679688 577.308594 722.535156 C 577.273438 725.53125 577.609375 731.386719 574.203125 728.300781 C 565.933594 720.8125 561.074219 707.761719 556.398438 697.949219 C 548.277344 680.910156 541.179688 663.382812 534.234375 645.84375 C 525.460938 623.675781 517.105469 601.320312 509.21875 578.820312 C 507.964844 575.246094 502.25 576.785156 503.515625 580.390625 C 512.960938 607.339844 523.085938 634.078125 533.8125 660.539062 C 540.773438 677.707031 548.027344 694.808594 556.445312 711.316406 C 560.265625 718.808594 565.765625 732.359375 574.648438 735.335938 C 591.691406 741.042969 576.484375 674.277344 575.449219 669.558594 C 568.738281 639.113281 560.742188 608.824219 551.335938 579.097656 C 550.59375 576.753906 547.007812 577.714844 547.644531 580.117188 Z M 547.644531 580.117188 "/>
<path style=" stroke:none;fill-rule:nonzero;fill:rgb(16.079712%,52.938843%,25.878906%);fill-opacity:1;" d="M 134.554688 557.929688 C 138.65625 551.5625 146.34375 545.683594 157.042969 541.492188 C 187.632812 529.511719 237.40625 525.914062 276.464844 523.109375 C 305.382812 521.03125 335.074219 520.417969 364.347656 520.417969 C 416.589844 520.417969 471 523.207031 520.835938 530.316406 C 556.167969 535.355469 591.992188 544.722656 595.65625 562.730469 C 605.445312 610.886719 439.585938 614.398438 366.773438 614.09375 C 314.222656 613.878906 258.128906 612.199219 208.355469 604.164062 C 179.039062 599.433594 147.1875 594.050781 135.523438 580.035156 C 129.871094 573.230469 129.839844 565.253906 134.554688 557.929688 Z M 134.554688 557.929688 "/>
<path style=" stroke:none;fill-rule:nonzero;fill:rgb(78.819275%,88.62915%,39.608765%);fill-opacity:1;" d="M 271.164062 584.894531 C 245.296875 579.027344 164.96875 419.292969 175.015625 409.273438 C 185.0625 399.253906 274.9375 378.242188 292.535156 379.429688 C 310.128906 380.617188 355.714844 507.179688 371.039062 508.945312 C 386.367188 510.714844 509.191406 500.226562 514.367188 509.59375 C 515.523438 511.6875 520.6875 520.988281 514.589844 526.898438 C 493.402344 547.449219 437.058594 585.136719 429.285156 587.589844 C 419.273438 590.753906 297.035156 590.761719 271.164062 584.894531 Z M 271.164062 584.894531 "/>
<path style=" stroke:none;fill-rule:nonzero;fill:rgb(100%,74.119568%,34.899902%);fill-opacity:1;" d="M 189.265625 413.015625 C 185.441406 420.664062 262.558594 555.789062 271.160156 562.476562 C 279.757812 569.164062 354.972656 515.375 353.171875 507.988281 C 351.371094 500.605469 294.714844 394.605469 288.816406 388.519531 C 282.914062 382.429688 193.089844 405.371094 189.265625 413.015625 Z M 189.265625 413.015625 "/>
<path style=" stroke:none;fill-rule:nonzero;fill:rgb(16.079712%,52.938843%,25.878906%);fill-opacity:1;" d="M 408.777344 550.84375 C 409.015625 554.070312 430.128906 551.792969 435.59375 551.203125 C 441.058594 550.613281 462.410156 536.148438 462.410156 531.851562 C 462.410156 527.546875 442.222656 528.984375 438.398438 529.339844 C 434.578125 529.699219 408.539062 547.621094 408.777344 550.84375 Z M 408.777344 550.84375 "/>
<path style=" stroke:none;fill-rule:nonzero;fill:rgb(16.079712%,52.938843%,25.878906%);fill-opacity:1;" d="M 285.1875 567.601562 C 290.363281 570.199219 296.695312 570.765625 302.355469 571.441406 C 313.292969 572.753906 324.3125 573.375 335.316406 573.835938 C 359.625 574.859375 384.027344 575.03125 408.332031 573.902344 C 415.09375 573.589844 422.183594 573.40625 428.777344 571.699219 C 437.640625 569.402344 445.886719 562.519531 453.148438 557.277344 C 472.417969 543.371094 490.730469 528.121094 509.699219 513.8125 C 510.269531 513.382812 509.957031 512.21875 509.167969 512.542969 C 501.488281 515.691406 494.84375 522.015625 488.355469 527.066406 C 477.558594 535.464844 466.886719 544.023438 455.921875 552.199219 C 447.734375 558.304688 439 565.34375 429.324219 568.945312 C 422.910156 571.332031 415.066406 571.167969 408.332031 571.574219 C 385.109375 572.976562 361.6875 572.59375 338.453125 571.792969 C 327.574219 571.417969 316.683594 570.882812 305.835938 569.957031 C 299.296875 569.398438 291.65625 569.363281 285.492188 566.882812 C 285.078125 566.71875 284.792969 567.40625 285.1875 567.601562 Z M 285.1875 567.601562 "/>
<path style=" stroke:none;fill-rule:nonzero;fill:rgb(11.369324%,5.488586%,2.749634%);fill-opacity:1;" d="M 1152.730469 91.15625 C 1174.230469 105.492188 1195.730469 82.554688 1221.53125 91.15625 C 1254.5 104.058594 1274.566406 141.332031 1286.035156 172.875 C 1297.503906 201.546875 1294.636719 230.21875 1283.167969 257.457031 C 1277.4375 271.792969 1271.703125 283.265625 1281.734375 299.035156 C 1291.769531 314.804688 1303.234375 319.105469 1300.367188 340.609375 C 1296.066406 372.152344 1258.800781 397.957031 1227.265625 396.523438 C 1192.863281 393.65625 1168.5 359.246094 1146.996094 334.875 C 1099.695312 280.398438 1093.960938 221.617188 1103.996094 152.804688 C 1105.429688 149.9375 1105.429688 147.070312 1105.429688 144.203125 "/>
<path style=" stroke:none;fill-rule:nonzero;fill:rgb(78.819275%,88.62915%,39.608765%);fill-opacity:1;" d="M 1044.945312 593.445312 C 1044.945312 593.445312 765.019531 636.097656 667.800781 643.640625 C 617.695312 647.527344 530.457031 674.71875 454.128906 698.019531 C 459.054688 709.417969 457.808594 723.875 457.980469 735.679688 C 458.117188 745.070312 458.078125 754.40625 457.796875 763.722656 C 526 758.691406 603.441406 754.726562 653.679688 755.730469 C 738.84375 757.429688 1146.527344 866.347656 1170.410156 598.363281 Z M 1044.945312 593.445312 "/>
<path style=" stroke:none;fill-rule:nonzero;fill:rgb(100%,74.119568%,34.899902%);fill-opacity:1;" d="M 463.992188 695.003906 C 388.117188 718.1875 320.792969 738.738281 307.703125 730.796875 C 281.863281 715.125 274.671875 663.214844 262.90625 662.808594 C 251.136719 662.402344 280.039062 770.976562 293.601562 780.398438 C 303.433594 787.230469 320.445312 777 341.199219 774.453125 C 369.078125 771.03125 415.859375 766.710938 466.8125 763.070312 C 467.1875 740.21875 467.679688 717.390625 463.992188 695.003906 Z M 463.992188 695.003906 "/>
<path style=" stroke:none;fill-rule:nonzero;fill:rgb(78.819275%,88.62915%,39.608765%);fill-opacity:1;" d="M 1164.320312 614.4375 L 1034.628906 595.007812 C 1034.628906 595.007812 852.710938 289.699219 732.128906 327.339844 C 659.785156 349.921875 644.324219 490.140625 638.441406 602.8125 C 645.671875 605.28125 652.601562 608.519531 659.628906 611.660156 C 671.210938 616.828125 682.101562 619.792969 694.65625 621.363281 C 699.585938 621.980469 704.636719 622.605469 709.722656 623.097656 C 724.09375 580.746094 738.941406 543.851562 746.734375 536.257812 C 766.195312 517.300781 839.015625 755.398438 977.953125 770.9375 C 1116.894531 786.476562 1168.070312 642.574219 1164.320312 614.4375 Z M 1164.320312 614.4375 "/>
<path style=" stroke:none;fill-rule:nonzero;fill:rgb(100%,74.119568%,34.899902%);fill-opacity:1;" d="M 638.84375 595.390625 C 634.492188 673.761719 635.167969 740.582031 625.445312 748.417969 C 601.910156 767.375 547.089844 754.972656 546.273438 767.378906 C 545.457031 779.789062 653.789062 788.121094 667.265625 778.578125 C 677.039062 771.65625 673.214844 752.175781 677.894531 731.792969 C 685.242188 699.765625 699.175781 653.300781 713.015625 613.535156 C 687.929688 608.773438 662.84375 604.230469 638.84375 595.390625 Z M 638.84375 595.390625 "/>
<path style=" stroke:none;fill-rule:nonzero;fill:rgb(11.369324%,5.488586%,2.749634%);fill-opacity:1;" d="M 977.585938 138.847656 C 960.324219 135.277344 951.601562 112.640625 950.410156 98.28125 C 949.09375 70.75 966.546875 42.519531 991.097656 28.019531 C 1038.941406 0.0195312 1124.660156 25.160156 1149.847656 86.320312 "/>
<path style=" stroke:none;fill-rule:nonzero;fill:rgb(100%,74.119568%,34.899902%);fill-opacity:1;" d="M 1133.015625 250.554688 C 1125.359375 235.289062 1112.355469 202.925781 1119.996094 177.886719 C 1124.644531 162.648438 1132.511719 167.257812 1145.507812 139.445312 C 1158.503906 111.632812 1097.097656 1.636719 1002.128906 50.046875 C 1001.875 50.175781 1001.601562 50.265625 1001.339844 50.375 C 961.859375 67.035156 958.753906 103.011719 970.257812 145.777344 C 977.105469 171.242188 960.671875 185.046875 963.15625 193.8125 C 965.640625 202.578125 977.695312 196.652344 985.035156 211.261719 C 992.378906 225.871094 1010.054688 253.015625 1021.5625 252.917969 C 1026.703125 252.875 1032.292969 253.417969 1053.503906 241.464844 C 1067.308594 265.980469 1043.84375 291.542969 1046.25 298.585938 C 1049.453125 307.972656 1082.519531 282.238281 1099.195312 269.382812 C 1115.867188 256.523438 1136.335938 257.171875 1133.015625 250.554688 Z M 1133.015625 250.554688 "/>
<use xlink:href="#surface5" transform="matrix(1,0,0,1,1033,143)" mask="url(#mask0)"/>
<path style=" stroke:none;fill-rule:nonzero;fill:rgb(11.369324%,5.488586%,2.749634%);fill-opacity:1;" d="M 986.136719 156.394531 C 990.113281 170.839844 1011.984375 159.679688 1017.433594 151.882812 C 1017.917969 151.195312 1017.246094 150.441406 1016.566406 150.367188 C 1012.28125 149.917969 1008.003906 153.144531 1004.484375 155.15625 C 998.566406 158.535156 994.132812 159.8125 988.941406 154.757812 C 987.742188 153.59375 985.683594 154.757812 986.136719 156.394531 Z M 986.136719 156.394531 "/>
<path style=" stroke:none;fill-rule:nonzero;fill:rgb(11.369324%,5.488586%,2.749634%);fill-opacity:1;" d="M 977.597656 133.523438 C 978.84375 136.453125 986.34375 133.359375 995.027344 131.511719 C 1000.640625 130.3125 1012.902344 133.875 1011.980469 131.4375 C 1011.054688 128.996094 1008.53125 117.964844 994.558594 119.207031 C 980.582031 120.449219 975.550781 128.703125 977.597656 133.523438 Z M 977.597656 133.523438 "/>
<path style=" stroke:none;fill-rule:nonzero;fill:rgb(11.369324%,5.488586%,2.749634%);fill-opacity:1;" d="M 1002.042969 219.703125 C 1005.441406 218.601562 1008.8125 217.679688 1012.035156 216.09375 C 1014.507812 214.878906 1018.519531 212.054688 1017.601562 208.832031 C 1017.4375 208.265625 1016.847656 207.925781 1016.28125 208.078125 C 1015.015625 208.421875 1014.269531 209.320312 1013.332031 210.203125 C 1012.164062 211.304688 1010.65625 212.128906 1009.234375 212.855469 C 1006.480469 214.261719 1003.484375 215.15625 1000.714844 216.554688 C 998.960938 217.433594 1000.1875 220.304688 1002.042969 219.703125 Z M 1002.042969 219.703125 "/>
<path style=" stroke:none;fill-rule:nonzero;fill:rgb(11.369324%,5.488586%,2.749634%);fill-opacity:1;" d="M 1161.710938 126.917969 C 1155.402344 159.042969 1133.109375 174.203125 1121.671875 173.480469 C 1126.761719 159.222656 1131.46875 133.621094 1130.355469 128.21875 C 1121.933594 98.847656 1095.246094 122.835938 1092.496094 138.332031 C 1089.746094 153.828125 1100.472656 188.117188 1088.191406 191.910156 C 1075.90625 195.738281 1089.183594 184.417969 1081.339844 173.425781 C 1072.726562 161.363281 1054.816406 152.941406 1055.003906 143.808594 C 1055.496094 122.324219 1054.375 106.699219 1032.441406 96.589844 C 1010.449219 87.660156 965.902344 91.644531 981.023438 51.808594 C 996.140625 12.007812 1058.539062 1.761719 1111.101562 21.621094 C 1154.164062 37.894531 1171.363281 77.734375 1161.710938 126.917969 Z M 1161.710938 126.917969 "/>
<path style=" stroke:none;fill-rule:nonzero;fill:rgb(100%,34.118652%,34.118652%);fill-opacity:1;" d="M 1105.710938 142.210938 C 1106.738281 139.542969 1108.472656 136.707031 1110.984375 135.242188 C 1115.039062 132.871094 1116.011719 141.5625 1115.488281 143.78125 C 1114.648438 147.34375 1112.378906 150.691406 1110.390625 153.703125 C 1108.890625 155.972656 1106.585938 158.730469 1105.914062 161.378906 C 1105.71875 162.140625 1106.519531 162.722656 1107.195312 162.367188 C 1111.292969 160.203125 1114.632812 154.296875 1116.847656 150.410156 C 1119.574219 145.628906 1120.457031 141.101562 1118.328125 135.972656 C 1116.894531 132.515625 1113.46875 129.996094 1109.714844 131.589844 C 1105.484375 133.390625 1103.582031 137.527344 1103.074219 141.859375 C 1102.882812 143.472656 1105.214844 143.515625 1105.710938 142.210938 Z M 1105.710938 142.210938 "/>
<path style=" stroke:none;fill-rule:nonzero;fill:rgb(100%,34.118652%,34.118652%);fill-opacity:1;" d="M 1062.925781 236.480469 C 1076.066406 226.242188 1089.960938 215.015625 1098.460938 200.402344 C 1098.894531 199.660156 1097.910156 198.941406 1097.300781 199.507812 C 1084.972656 210.921875 1072.882812 222.667969 1060.582031 234.136719 C 1058.980469 235.632812 1061.292969 237.753906 1062.925781 236.480469 Z M 1062.925781 236.480469 "/>
<path style=" stroke:none;fill-rule:nonzero;fill:rgb(11.369324%,5.488586%,2.749634%);fill-opacity:1;" d="M 1004.5625 164.683594 C 1005.164062 159 998.371094 156.621094 994.1875 159.25 C 993.707031 159.207031 993.203125 159.304688 992.710938 159.601562 C 990.589844 160.871094 989.398438 163.3125 990.230469 165.757812 C 990.324219 166.03125 990.484375 166.253906 990.613281 166.5 C 991.285156 169.414062 994.507812 170.996094 997.40625 170.617188 C 998.21875 170.511719 998.960938 170.257812 999.554688 169.816406 C 1002.09375 169.230469 1004.257812 167.554688 1004.5625 164.683594 Z M 1004.5625 164.683594 "/>
<path style=" stroke:none;fill-rule:nonzero;fill:rgb(16.079712%,52.938843%,25.878906%);fill-opacity:1;" d="M 826.996094 654.390625 C 842.917969 680.234375 860.78125 710.199219 884.847656 729.214844 C 905.554688 745.582031 929.394531 758.332031 954.003906 767.707031 C 985.371094 779.664062 1019.964844 784.457031 1052.707031 775.492188 C 1092.0625 764.710938 1127.015625 729.429688 1140.414062 691.273438 C 1140.921875 689.816406 1138.816406 689.097656 1138.039062 690.273438 C 1125.175781 709.6875 1114.496094 729.183594 1097.140625 745.207031 C 1082.71875 758.515625 1065 767.566406 1046.03125 772.28125 C 1014.207031 780.1875 980.394531 773.207031 950.4375 761.570312 C 927.828125 752.792969 905.90625 740.476562 886.765625 725.539062 C 863.058594 707.039062 846.175781 677.636719 829.628906 652.855469 C 828.542969 651.234375 825.957031 652.707031 826.996094 654.390625 Z M 826.996094 654.390625 "/>
<path style=" stroke:none;fill-rule:nonzero;fill:rgb(16.079712%,52.938843%,25.878906%);fill-opacity:1;" d="M 1231.566406 379.320312 C 1231.566406 333.511719 1231.566406 299.136719 1197.316406 267.632812 C 1180.601562 252.257812 1162.773438 244.636719 1144.683594 242.914062 C 1142.191406 232.914062 1137.320312 221.6875 1130.273438 218.75 C 1112.121094 212.058594 1093.007812 238.824219 1081.539062 248.378906 C 1073.894531 255.070312 1066.25 259.847656 1056.695312 261.761719 C 1049.054688 263.671875 1037.601562 262.71875 1033.769531 271.296875 C 1030.964844 277.582031 1034.890625 281.636719 1034.644531 287.632812 C 1034.347656 294.839844 1030.96875 297.972656 1026.230469 303.105469 C 994.617188 337.351562 970.539062 379.933594 962.089844 413.730469 C 951.605469 448.1875 972.03125 462.894531 979.5625 492.550781 C 983.289062 507.222656 972.460938 511.6875 973.257812 525.191406 C 973.9375 536.753906 982.855469 538.21875 988.367188 547.0625 C 991.9375 552.785156 991.628906 560.34375 991.992188 567.5 C 992.234375 572.273438 992.773438 576.863281 994.960938 580.609375 C 999.65625 588.652344 1011.660156 592.519531 1018.957031 596.707031 C 1040.445312 609.039062 1062.792969 621.21875 1084.828125 632.070312 C 1120.789062 649.789062 1166.097656 621.117188 1198.121094 604.804688 C 1232.332031 535.832031 1234.097656 457.835938 1231.566406 379.320312 Z M 1231.566406 379.320312 "/>
<path style=" stroke:none;fill-rule:nonzero;fill:rgb(100%,34.118652%,34.118652%);fill-opacity:1;" d="M 852.359375 326.289062 C 851.871094 340.050781 857.992188 354.644531 866.832031 365.265625 C 895.882812 400.160156 956.476562 402.007812 987.839844 368.84375 C 1002.28125 353.578125 1013.539062 314.382812 1002.242188 301.480469 C 990.949219 288.582031 964.527344 280.421875 936.328125 280.566406 C 912.4375 280.6875 884.445312 283.5625 865.199219 299.605469 C 856.503906 306.859375 852.710938 316.355469 852.359375 326.289062 Z M 852.359375 326.289062 "/>
<path style=" stroke:none;fill-rule:nonzero;fill:rgb(16.079712%,52.938843%,25.878906%);fill-opacity:1;" d="M 993.828125 316.296875 C 993.539062 316.753906 993.195312 317.183594 992.796875 317.613281 L 992.796875 317.644531 C 987.953125 323.003906 976.3125 325.328125 968.800781 327.074219 C 952.460938 330.429688 887.902344 335.277344 869.984375 319.878906 C 867.578125 317.816406 866 315.347656 865.511719 312.480469 C 863.589844 300.925781 882.109375 293.617188 893.03125 290.976562 C 899.308594 289.484375 913.730469 288.082031 929.871094 287.9375 C 965.074219 287.652344 1008.476562 293.242188 993.828125 316.296875 Z M 993.828125 316.296875 "/>
<path style=" stroke:none;fill-rule:nonzero;fill:rgb(100%,34.118652%,34.118652%);fill-opacity:1;" d="M 1191.785156 77.863281 C 1184.121094 72.597656 1179.671875 81.78125 1176.578125 82.472656 C 1173.167969 83.234375 1172.046875 77.113281 1164.964844 80.082031 C 1157.878906 83.046875 1165.101562 92.71875 1161.636719 96.476562 C 1159.25 99.0625 1151.429688 99.0625 1150.230469 100.355469 C 1146.601562 104.289062 1152.265625 110.667969 1150.640625 115.457031 C 1149.023438 120.21875 1140.554688 123.238281 1139.371094 128.242188 C 1138.0625 133.757812 1142.917969 140.902344 1148.945312 137.644531 C 1153.695312 135.070312 1152.726562 128.28125 1156.617188 125.015625 C 1161.644531 120.789062 1170.105469 124.847656 1176.019531 122.097656 C 1182.128906 119.261719 1183.953125 113.910156 1184.65625 107.597656 C 1185.152344 103.117188 1183.539062 98.761719 1185.863281 94.71875 C 1189.15625 88.996094 1201.363281 84.449219 1191.785156 77.863281 Z M 1191.785156 77.863281 "/>
<path style=" stroke:none;fill-rule:nonzero;fill:rgb(11.369324%,5.488586%,2.749634%);fill-opacity:1;" d="M 925.816406 320.898438 C 921.011719 331.292969 901.742188 327.941406 893.292969 319.824219 C 884.839844 311.707031 888.171875 304.75 888.042969 299.921875 C 887.917969 295.09375 816.75 256.027344 832.875 245.992188 C 849 235.957031 886 295.453125 895.082031 295.453125 C 913.359375 295.449219 930.617188 310.503906 925.816406 320.898438 Z M 925.816406 320.898438 "/>
<path style=" stroke:none;fill-rule:nonzero;fill:rgb(78.819275%,88.62915%,39.608765%);fill-opacity:1;" d="M 992.796875 317.613281 L 992.796875 317.644531 C 987.953125 323.003906 976.3125 325.328125 968.800781 327.074219 C 952.460938 330.429688 887.902344 335.277344 869.984375 319.878906 C 872.5625 316.207031 880.132812 317.300781 883.6875 315.980469 C 884.921875 315.519531 885.78125 314.515625 886.640625 313.570312 C 890.195312 309.671875 892 306.691406 897.933594 306.289062 C 902.722656 305.972656 907.710938 307.554688 912.152344 305 C 914.359375 303.707031 916.394531 302.21875 918.519531 300.785156 C 923.535156 297.375 927.894531 300.523438 932.105469 303.164062 C 936.722656 306.058594 942.542969 304.222656 947.328125 302.992188 C 950.570312 302.132812 953.492188 302.042969 956.703125 303.078125 C 959.3125 303.9375 961.636719 305.828125 964.445312 306.144531 C 971.152344 306.949219 975.910156 304.710938 981.503906 310.1875 C 982.648438 311.273438 984.398438 313.082031 985.976562 313.371094 C 986.664062 313.542969 987.351562 313.65625 988.066406 313.742188 C 990.960938 313.457031 992.796875 315.4375 992.796875 317.613281 Z M 992.796875 317.613281 "/>
<path style=" stroke:none;fill-rule:nonzero;fill:rgb(100%,74.119568%,34.899902%);fill-opacity:1;" d="M 911.175781 364.046875 C 906.316406 370.660156 891.070312 364.699219 885.421875 360.457031 C 878.824219 355.507812 873.648438 346.953125 868.671875 340.550781 C 862.453125 332.550781 843.414062 314.472656 840.628906 316.210938 C 837.84375 317.945312 849.101562 333.238281 850.714844 341.863281 C 851.785156 347.570312 848.597656 347.46875 846.660156 352.804688 C 844.992188 357.398438 846.136719 362.214844 847.722656 366.472656 C 849.558594 371.398438 851.664062 373.621094 850.566406 379.015625 C 849.640625 383.566406 846.894531 387.601562 848.453125 392.652344 C 850.507812 399.289062 859.285156 404.546875 863.734375 409.699219 C 875.347656 423.144531 901.394531 422.980469 909.277344 438.890625 C 917.160156 454.800781 930.023438 504.203125 937.867188 523.902344 C 948.355469 550.246094 1002.328125 514.347656 992.597656 492.171875 C 982.871094 469.996094 960.066406 426.640625 952.476562 408.324219 C 948.984375 399.898438 942.082031 363.433594 937.363281 354.457031 C 930.597656 341.59375 908.179688 313.828125 899.890625 320.433594 C 893.609375 325.4375 917.855469 354.953125 911.175781 364.046875 Z M 911.175781 364.046875 "/>
<path style=" stroke:none;fill-rule:nonzero;fill:rgb(16.079712%,52.938843%,25.878906%);fill-opacity:1;" d="M 1231.566406 482.542969 C 1230.609375 460.558594 1238.257812 440.488281 1240.167969 418.503906 C 1242.078125 396.523438 1238.257812 376.449219 1235.386719 355.425781 C 1231.566406 336.308594 1228.699219 318.148438 1220.097656 299.992188 C 1211.5 278.964844 1186.652344 263.671875 1165.628906 280.875 C 1148.429688 294.257812 1132.183594 320.0625 1128.363281 342.046875 C 1125.496094 361.160156 1131.230469 380.277344 1120.714844 398.433594 C 1108.292969 417.550781 1096.828125 427.109375 1101.605469 451.957031 C 1105.425781 472.03125 1124.539062 494.011719 1095.871094 505.480469 C 1071.980469 514.082031 1063.382812 486.363281 1047.136719 473.941406 C 1038.671875 467.734375 1032.050781 467.132812 1022.902344 469.5625 C 1015.496094 471.53125 1012.015625 473.789062 1004.484375 469.65625 C 993.125 463.429688 987.570312 448.199219 972.59375 449.089844 C 956.351562 450.050781 951.578125 488.277344 943.933594 500.699219 C 930.554688 521.722656 916.222656 537.972656 934.378906 560.910156 C 951.578125 581.9375 974.511719 589.585938 985.980469 615.390625 C 994.578125 637.375 1006.046875 661.265625 1028.980469 670.824219 C 1051.914062 680.382812 1071.980469 674.648438 1094.914062 667 C 1105.425781 664.132812 1115.941406 658.398438 1127.40625 657.441406 C 1138.871094 656.488281 1149.382812 661.265625 1160.851562 660.308594 C 1186.652344 657.441406 1210.539062 641.195312 1225.828125 621.121094 C 1258.324219 580.03125 1233.480469 527.464844 1231.566406 482.542969 Z M 1231.566406 482.542969 "/>
<path style=" stroke:none;fill-rule:nonzero;fill:rgb(100%,34.118652%,34.118652%);fill-opacity:1;" d="M 981.785156 450.929688 C 994.152344 452.777344 994.578125 467.296875 1003.980469 472.894531 C 1007.351562 474.898438 1009.351562 475.164062 1013.339844 475.152344 C 1025.269531 475.128906 1032.199219 470.714844 1044.035156 477.1875 C 1058.445312 485.066406 1078.445312 524.832031 1100.367188 510.144531 C 1118.949219 497.691406 1105.332031 469.691406 1100.46875 453.710938 C 1093.242188 429.976562 1103.527344 416.046875 1117.546875 398.078125 C 1128.847656 383.601562 1122.410156 372.082031 1125.390625 355.710938 C 1126.042969 352.125 1120.808594 350.558594 1119.863281 354.183594 C 1118.617188 358.960938 1118.589844 362.585938 1119.074219 367.582031 C 1120.085938 378.046875 1118.949219 385.492188 1112.863281 394.464844 C 1105.003906 406.050781 1095.597656 414.277344 1092.382812 428.496094 C 1089.746094 440.136719 1094.238281 452.847656 1097.839844 463.71875 C 1101.648438 475.207031 1112.21875 499.714844 1095.726562 506.554688 C 1072.628906 516.132812 1056.765625 470.082031 1033.644531 468.550781 C 1027.625 468.148438 1022.699219 469.242188 1016.863281 470.625 C 1005.078125 473.414062 1001.320312 464.617188 996.203125 457.308594 C 992.566406 452.121094 988.535156 448.734375 982.15625 448.15625 C 980.582031 448.015625 980.214844 450.695312 981.785156 450.929688 Z M 981.785156 450.929688 "/>
<path style=" stroke:none;fill-rule:nonzero;fill:rgb(100%,34.118652%,34.118652%);fill-opacity:1;" d="M 1043.40625 293.273438 C 1074.523438 305.480469 1117.210938 290.550781 1129.617188 257.804688 C 1130.101562 256.523438 1128.320312 255.710938 1127.445312 256.542969 C 1115.882812 267.453125 1107.753906 279.269531 1093.234375 286.980469 C 1077.875 295.140625 1060.550781 294.433594 1044.179688 290.464844 C 1042.320312 290.011719 1041.695312 292.597656 1043.40625 293.273438 Z M 1043.40625 293.273438 "/>
<path style=" stroke:none;fill-rule:nonzero;fill:rgb(100%,34.118652%,34.118652%);fill-opacity:1;" d="M 1048.316406 271.464844 C 1047.785156 274.414062 1047.648438 277.269531 1048.234375 280.230469 C 1048.667969 282.421875 1050.414062 286.199219 1053.109375 285.839844 C 1053.894531 285.738281 1054.34375 285.195312 1054.210938 284.394531 C 1054.027344 283.28125 1053.335938 282.777344 1052.664062 281.898438 C 1051.945312 280.957031 1051.65625 279.792969 1051.417969 278.660156 C 1050.921875 276.3125 1051.128906 273.835938 1050.738281 271.460938 C 1050.535156 270.253906 1048.535156 270.269531 1048.316406 271.464844 Z M 1048.316406 271.464844 "/>
<path style=" stroke:none;fill-rule:nonzero;fill:rgb(100%,34.118652%,34.118652%);fill-opacity:1;" d="M 1078.378906 262.847656 C 1076.859375 268.515625 1076.363281 277.050781 1083.023438 279.65625 C 1083.664062 279.90625 1084.078125 279.105469 1083.832031 278.601562 C 1082.675781 276.238281 1081.15625 274.253906 1080.5625 271.628906 C 1079.964844 268.972656 1080.34375 266.167969 1080.882812 263.539062 C 1081.214844 261.910156 1078.8125 261.21875 1078.378906 262.847656 Z M 1078.378906 262.847656 "/>
<path style=" stroke:none;fill-rule:nonzero;fill:rgb(100%,34.118652%,34.118652%);fill-opacity:1;" d="M 1092.507812 256.027344 C 1092.425781 258.101562 1092.550781 260.144531 1092.84375 262.199219 C 1093.105469 264 1093.285156 265.773438 1095.058594 266.640625 C 1095.316406 266.769531 1095.667969 266.773438 1095.875 266.535156 C 1096.953125 265.292969 1096.824219 264.203125 1096.5 262.660156 C 1096.035156 260.460938 1095.574219 258.273438 1095.421875 256.027344 C 1095.292969 254.160156 1092.582031 254.136719 1092.507812 256.027344 Z M 1092.507812 256.027344 "/>
<path style=" stroke:none;fill-rule:nonzero;fill:rgb(100%,34.118652%,34.118652%);fill-opacity:1;" d="M 1111.949219 234.519531 C 1112.355469 237.660156 1113.09375 240.691406 1113.773438 243.777344 C 1114.566406 247.363281 1114.71875 250.886719 1116.339844 254.203125 C 1116.539062 254.613281 1117.269531 254.640625 1117.460938 254.203125 C 1120.121094 248.121094 1116.628906 240.078125 1114.632812 234.15625 C 1114.167969 232.78125 1111.738281 232.917969 1111.949219 234.519531 Z M 1111.949219 234.519531 "/>
<path style=" stroke:none;fill-rule:nonzero;fill:rgb(100%,34.118652%,34.118652%);fill-opacity:1;" d="M 1161.96875 591.195312 C 1130.875 612.578125 1202.949219 643.660156 1190.410156 603.15625 C 1189.609375 600.5625 1186.484375 600.40625 1185.007812 602.449219 C 1177.417969 612.949219 1180.632812 628.949219 1196.277344 628.753906 C 1212.308594 628.554688 1220.410156 611.976562 1225.191406 598.574219 C 1225.691406 597.164062 1223.859375 596.449219 1222.910156 597.242188 C 1219.136719 600.394531 1216.464844 604.722656 1213.8125 608.835938 C 1211.71875 612.089844 1209.671875 615.066406 1207.140625 618.027344 C 1197.777344 628.976562 1181.800781 617.140625 1190.117188 605.433594 C 1188.316406 605.199219 1186.515625 604.964844 1184.714844 604.726562 C 1188.300781 615.984375 1181.753906 619.796875 1171.597656 616.253906 C 1160.054688 612.222656 1158.5 602.898438 1163.996094 593.21875 C 1164.6875 591.996094 1163.238281 590.324219 1161.96875 591.195312 Z M 1161.96875 591.195312 "/>
<path style=" stroke:none;fill-rule:nonzero;fill:rgb(100%,34.118652%,34.118652%);fill-opacity:1;" d="M 1008.886719 52.445312 C 1019.898438 61.5625 1033.789062 66.0625 1046.589844 72.007812 C 1053.207031 75.078125 1059.351562 78.832031 1064.441406 84.105469 C 1072.691406 92.640625 1071.972656 103.714844 1073.035156 114.589844 C 1073.214844 116.453125 1076.054688 117.148438 1076.511719 115.0625 C 1085.46875 74.078125 1036.394531 65.652344 1010.492188 50.371094 C 1009.226562 49.625 1007.707031 51.46875 1008.886719 52.445312 Z M 1008.886719 52.445312 "/>
<path style=" stroke:none;fill-rule:nonzero;fill:rgb(100%,34.118652%,34.118652%);fill-opacity:1;" d="M 1061.421875 45.253906 C 1068.230469 44.890625 1072.976562 46.230469 1076.804688 52.097656 C 1079.28125 55.890625 1080.941406 60.15625 1083.761719 63.738281 C 1088.425781 69.664062 1098.253906 76.375 1106.167969 73.433594 C 1119.746094 68.390625 1107.574219 43.144531 1095.332031 45.898438 C 1094.046875 46.1875 1093.4375 48.125 1094.511719 49.003906 C 1096.9375 50.992188 1100 51.640625 1102.402344 53.78125 C 1104.734375 55.859375 1106.140625 58.683594 1106.871094 61.675781 C 1109.421875 72.125 1098.15625 69.078125 1092.851562 65.929688 C 1080.253906 58.457031 1080.078125 37.113281 1061.054688 42.527344 C 1059.578125 42.945312 1059.828125 45.339844 1061.421875 45.253906 Z M 1061.421875 45.253906 "/>
<path style=" stroke:none;fill-rule:nonzero;fill:rgb(100%,34.118652%,34.118652%);fill-opacity:1;" d="M 1198.730469 136.21875 C 1224.816406 145.078125 1249.308594 169.335938 1249.125 198.222656 C 1249 217.53125 1231.726562 240.054688 1247.578125 257.1875 C 1248.449219 258.128906 1250.070312 257.152344 1249.710938 255.945312 C 1247.679688 249.113281 1245.585938 243.203125 1245.816406 235.902344 C 1246.070312 227.898438 1249.511719 219.539062 1251.527344 211.839844 C 1254.570312 200.207031 1253.917969 189.128906 1249.863281 177.875 C 1242.089844 156.308594 1221.1875 139.328125 1199.328125 134.066406 C 1197.914062 133.71875 1197.367188 135.757812 1198.730469 136.21875 Z M 1198.730469 136.21875 "/>
<path style=" stroke:none;fill-rule:nonzero;fill:rgb(100%,34.118652%,34.118652%);fill-opacity:1;" d="M 1188.6875 173.015625 C 1195.386719 182.816406 1186.457031 195.316406 1187.257812 206.023438 C 1187.679688 211.6875 1193.523438 217.46875 1199.390625 215.171875 C 1205.800781 212.664062 1206.046875 202.972656 1205.582031 197.394531 C 1204.753906 187.484375 1199.5625 175.625 1189.878906 171.8125 C 1189.335938 171.597656 1188.929688 172.292969 1189.167969 172.730469 C 1193.304688 180.230469 1198.589844 186.078125 1200.621094 194.664062 C 1201.457031 198.199219 1202.3125 214.558594 1194.679688 210.632812 C 1187.578125 206.980469 1193.65625 192.542969 1194.523438 186.765625 C 1195.386719 181.039062 1194.621094 175.839844 1190.550781 171.574219 C 1189.632812 170.613281 1187.917969 171.886719 1188.6875 173.015625 Z M 1188.6875 173.015625 "/>
<path style=" stroke:none;fill-rule:nonzero;fill:rgb(16.079712%,52.938843%,25.878906%);fill-opacity:1;" d="M 729.054688 349.453125 C 724.058594 357.921875 717.792969 368.867188 722.355469 378.726562 C 725.769531 386.097656 733.824219 388.542969 740.5625 384.449219 C 746.8125 380.648438 751.035156 372.722656 752.808594 365.851562 C 753.792969 362.035156 752.5625 353.300781 746.503906 356.378906 C 741.542969 358.898438 741.3125 367.027344 742.035156 371.703125 C 743.324219 380.035156 748.539062 385.628906 757.015625 386.480469 C 775.792969 388.367188 784.054688 355.457031 765.492188 350.246094 C 762.320312 349.355469 760.34375 353.949219 763.25 355.566406 C 774.128906 361.636719 769.21875 380.035156 757.019531 380.214844 C 749.15625 380.332031 744.457031 367.433594 749.066406 361.519531 C 747.824219 360.957031 747.398438 361.1875 747.789062 362.214844 C 747.796875 362.949219 747.714844 363.679688 747.542969 364.398438 C 747.136719 366.601562 746.222656 368.710938 745.246094 370.707031 C 743.355469 374.589844 740.597656 378.230469 736.898438 380.515625 C 730.453125 384.492188 725.796875 375.667969 725.816406 370.460938 C 725.84375 363.792969 729.214844 356.636719 731.71875 350.570312 C 732.363281 349.011719 729.871094 348.074219 729.054688 349.453125 Z M 729.054688 349.453125 "/>
<path style=" stroke:none;fill-rule:nonzero;fill:rgb(11.369324%,5.488586%,2.749634%);fill-opacity:1;" d="M 963.953125 72.148438 C 946.933594 71.21875 935.820312 96.625 935.226562 110.480469 C 934.347656 130.914062 951.710938 156.007812 972.554688 158.660156 C 974.601562 158.921875 975.226562 155.8125 973.570312 154.902344 C 957.742188 146.214844 946.273438 135.359375 941.652344 117.308594 C 938.386719 104.546875 948.003906 76.3125 963.953125 74.835938 C 965.664062 74.679688 965.703125 72.246094 963.953125 72.148438 Z M 963.953125 72.148438 "/>
<path style=" stroke:none;fill-rule:nonzero;fill:rgb(11.369324%,5.488586%,2.749634%);fill-opacity:1;" d="M 1245.15625 117.675781 C 1280.449219 147.214844 1307.601562 196.3125 1300.96875 243.542969 C 1297.09375 271.109375 1250.585938 311.820312 1293.800781 332.28125 C 1296.363281 333.496094 1298.796875 330.527344 1296.839844 328.339844 C 1287.789062 318.238281 1279.882812 311.121094 1283.824219 296.519531 C 1286.550781 286.414062 1294.515625 277.78125 1299.554688 268.792969 C 1308.21875 253.335938 1310.453125 234.605469 1307.804688 217.253906 C 1301.59375 176.519531 1281.257812 138.902344 1247.167969 115.070312 C 1245.625 113.996094 1243.714844 116.46875 1245.15625 117.675781 Z M 1245.15625 117.675781 "/>
<path style=" stroke:none;fill-rule:nonzero;fill:rgb(78.819275%,88.62915%,39.608765%);fill-opacity:1;" d="M 1143.980469 405.566406 C 1146.777344 419 1165.019531 435.632812 1177.433594 422.507812 C 1183.589844 416 1187.183594 420.605469 1192.996094 422.671875 C 1197.601562 424.308594 1202.484375 424.292969 1207.289062 425.789062 C 1213.457031 427.707031 1215.589844 421.148438 1216.128906 416.613281 C 1216.3125 415.089844 1213.980469 414.136719 1213.03125 415.328125 C 1208.574219 420.933594 1204.925781 418.050781 1199.023438 417.421875 C 1193.890625 416.871094 1188.285156 410.660156 1182.964844 411.894531 C 1178.683594 412.890625 1176.316406 415.242188 1173.410156 418.484375 C 1163.835938 429.179688 1150.707031 412 1146.886719 404.339844 C 1146.042969 402.648438 1143.628906 403.882812 1143.980469 405.566406 Z M 1143.980469 405.566406 "/>
<path style=" stroke:none;fill-rule:nonzero;fill:rgb(78.819275%,88.62915%,39.608765%);fill-opacity:1;" d="M 1039.644531 543.390625 C 1031.585938 549.449219 1022.195312 564.097656 1031.714844 573.160156 C 1037.421875 578.589844 1054.320312 582.4375 1052.441406 593.015625 C 1050.9375 601.492188 1043.53125 608.171875 1041.304688 616.519531 C 1040.851562 618.226562 1042.21875 620.613281 1044.222656 620.347656 C 1046.964844 619.984375 1049.59375 619.515625 1052.289062 618.855469 C 1053.8125 618.484375 1053.8125 616.160156 1052.289062 615.789062 C 1049.59375 615.128906 1046.964844 614.660156 1044.222656 614.296875 C 1045.195312 615.574219 1046.164062 616.847656 1047.136719 618.125 C 1050.78125 609.425781 1064.195312 594.152344 1057.085938 584.113281 C 1053.765625 579.417969 1049.988281 577.035156 1044.753906 574.640625 C 1029.210938 567.527344 1034.238281 556.996094 1041.695312 545.441406 C 1042.476562 544.234375 1040.867188 542.46875 1039.644531 543.390625 Z M 1039.644531 543.390625 "/>
<path style=" stroke:none;fill-rule:nonzero;fill:rgb(16.079712%,52.938843%,25.878906%);fill-opacity:1;" d="M 1161.660156 164.582031 C 1162.113281 166.734375 1164.066406 177.15625 1160.339844 178.882812 C 1157.636719 180.136719 1155.4375 182.441406 1153.574219 184.679688 C 1150.464844 188.414062 1150.015625 193.414062 1150.390625 198.039062 C 1151.289062 209.144531 1160.066406 221.394531 1169.820312 226.390625 C 1170.722656 226.851562 1171.917969 225.875 1171.289062 224.917969 C 1162.808594 211.953125 1144.15625 192.71875 1165.863281 181.699219 C 1166.59375 181.324219 1167.109375 180.394531 1167.074219 179.582031 C 1166.832031 173.601562 1166.292969 169.070312 1163.664062 163.738281 C 1163.089844 162.566406 1161.410156 163.421875 1161.660156 164.582031 Z M 1161.660156 164.582031 "/>
<path style=" stroke:none;fill-rule:nonzero;fill:rgb(16.079712%,52.938843%,25.878906%);fill-opacity:1;" d="M 269.789062 504.542969 C 271.054688 488.566406 267.695312 470.546875 276.082031 456.046875 C 274.601562 455.648438 273.121094 455.242188 271.640625 454.84375 C 273.257812 468.078125 270.066406 486.117188 286.671875 489.980469 C 287.992188 490.289062 289.816406 489.585938 290.042969 488.066406 C 292.535156 471.457031 296.234375 454.371094 297.308594 437.640625 C 297.488281 434.867188 293.761719 434.878906 292.867188 437.039062 C 286.585938 452.125 286.207031 471.207031 284.664062 487.34375 C 285.820312 486.460938 286.976562 485.582031 288.128906 484.699219 C 274.789062 481.886719 277.730469 464.609375 276.320312 454.210938 C 276.035156 452.089844 272.886719 452 271.964844 453.640625 C 263.660156 468.445312 265.257812 488.257812 266.789062 504.546875 C 266.96875 506.464844 269.632812 506.488281 269.789062 504.542969 Z M 269.789062 504.542969 "/>
</g>
</svg>
